<svg
    xmlns="http://www.w3.org/2000/svg"
    version="1.1"
    xmlns:xlink="http://www.w3.org/1999/xlink"
    style="font-size: 10pt; overflow: visible;"
    viewBox="76.6141128540039 -180.01576232910156 193.35455322265625 127.59053039550781"
>
    <defs>
        <symbol id="path_empty-diode">
            <g
                fill="none"
                stroke="currentStroke"
                stroke-miterlimit="10"
                stroke-width=".4"
            >
                <path
                    stroke-width="1.06267"
                    d="m21.69628 13.75964-21.16492-13.22828v26.45657Zm0 13.22829v-26.45657"
                />
            </g>
        </symbol>
        <symbol id="node_npn">
            <g stroke="currentStroke" stroke-miterlimit="10" stroke-width=".4">
                <path
                    fill="none"
                    stroke-width=".53134"
                    d="M32.27954.26569v17.72729l-15.87408 7.27558"
                />
                <path
                    fill="none"
                    stroke-width="1.06267"
                    d="M16.40546 17.99298v23.28149"
                />
                <path
                    fill="none"
                    stroke-width=".53134"
                    d="m16.40546 33.99889 15.87408 7.27558v17.72729"
                />
                <path
                    stroke="none"
                    d="m21.99668 36.56154 1.27031-2.77167 4.92354 5.61043-7.46418-.06708Z"
                    fill="currentColor"
                />
                <path
                    fill="none"
                    stroke-width=".53134"
                    d="M16.40546 29.63372h-16.13977"
                />
            </g>
        </symbol>
        <symbol id="path_american-resistor">
            <g
                fill="none"
                stroke="currentStroke"
                stroke-miterlimit="10"
                stroke-width=".4"
            >
                <path
                    stroke-linejoin="bevel"
                    stroke-width="1.06267"
                    d="m.53136 8.46838 4.05887-7.93703 7.05509 15.87407 7.05509-15.87407 7.05507 15.87407 7.05509-15.87407 7.05509 15.87407 4.05887-7.93704"
                />
            </g>
        </symbol>
        <symbol id="node_ground">
            <g
                fill="none"
                stroke="currentStroke"
                stroke-miterlimit="10"
                stroke-width=".4"
            >
                <path stroke-width=".53134" d="M8.46839.30374v15.8739" />
                <path
                    stroke-width="1.06267"
                    d="M.53135 16.17763h15.87407m-13.22826 2.64563h10.58245m-8.59829 2.6458h6.61413"
                />
            </g>
        </symbol>
        <symbol id="path_american-voltage-source">
            <defs>
                <path
                    id="path_american-voltage-source_a"
                    d="M6.56538-2.2914c.16936 0 .3487 0 .3487-.19926s-.17934-.19925-.3487-.19925h-5.38979c-.16936 0-.3487 0-.3487.19925s.17934.19925.3487.19925h5.38979Z"
                />
                <path
                    id="path_american-voltage-source_b"
                    d="M4.07472-2.2914h2.77958c.13947 0 .32876 0 .32876-.19926s-.18929-.19925-.32876-.19925h-2.77958v-2.78954c0-.13948 0-.32877-.19925-.32877s-.19926.1893-.19926.32877v2.78954h-2.78954c-.13947 0-.32876 0-.32876.19925s.18929.19925.32876.19925h2.78954v2.78954c0 .13948 0 .32877.19926.32877s.19925-.1893.19925-.32877v-2.78954Z"
                />
            </defs>
            <g stroke="currentStroke" stroke-miterlimit="10" stroke-width=".4">
                <path
                    fill="none"
                    stroke-width="1.06267"
                    d="M16.40544.53136c-8.7671 0-15.87408 7.10697-15.87408 15.87408s7.10697 15.87408 15.87408 15.87408 15.87408-7.10697 15.87408-15.87408-7.10697-15.87408-15.87408-15.87408Zm0 15.87408"
                />
                <g stroke="none">
                    <use
                        xlink:href="#path_american-voltage-source_a"
                        x="-59.69594"
                        y="-59.69594"
                        transform="rotate(-90 23.99077 -82.01407) scale(1.33333)"
                        fill="currentColor"
                    />
                    <use
                        xlink:href="#path_american-voltage-source_b"
                        x="-59.69594"
                        y="-59.69594"
                        transform="rotate(-90 17.30681 -75.33011) scale(1.33333)"
                        fill="currentColor"
                    />
                </g>
            </g>
        </symbol>
    </defs>
    <g style="" class="">
        <use
            xlink:href="#path_empty-diode"
            fill="#fff"
            stroke="#000"
            style="color: #000;"
            transform="matrix(1,0,0,1,187.3113768503937,-136.59428566929134)"
            class="draggable"
        />
        <line
            x1="160.62992125984252"
            y1="-122.83464566929133"
            x2="187.84273685039372"
            y2="-122.83464566929133"
            fill="none"
            stroke-width="0.5"
            stroke="#000"
        />
        <line
            x1="236.2204724409449"
            y1="-122.83464566929133"
            x2="209.00765685039372"
            y2="-122.83464566929133"
            fill="none"
            stroke-width="0.5"
            stroke="#000"
        />
    </g>
    <g class="draggable">
        <use
            xlink:href="#node_npn"
            fill="#fff"
            stroke="#000"
            style="color: #000;"
            transform="matrix(1,0,0,1,235.68912244094486,-152.46836566929133)"
            class=""
        />
    </g>
    <g style="">
        <use
            xlink:href="#path_american-resistor"
            fill="#fff"
            stroke="#000"
            style="color: #000;"
            transform="matrix(1,0,0,1,199.81924409448817,-178.5471201574803)"
            class="draggable"
        />
        <line
            x1="188.97637795275588"
            y1="-170.0787401574803"
            x2="200.88193409448817"
            y2="-170.0787401574803"
            fill="none"
            stroke-width="0.5"
            stroke="#000"
        />
        <line
            x1="255.11811023622045"
            y1="-170.0787401574803"
            x2="243.2125640944882"
            y2="-170.0787401574803"
            fill="none"
            stroke-width="0.5"
            stroke="#000"
        />
    </g>
    <g class="">
        <polyline
            points="-6.425276102362204,-9.070867244094472 6.425276102362204,-9.070867244094472 6.425276102362204,9.0708672440945"
            fill="none"
            stroke-dasharray="0.4pt 0pt"
            stroke-opacity="1"
            stroke-width="0.5333333333333333"
            stroke="#000"
            transform="matrix(1,0,0,1,261.54338633858265,-161.00787291338582)"
        />
    </g>
    <g class="draggable">
        <use
            xlink:href="#node_ground"
            fill="#fff"
            stroke="#000"
            style="color: #000;"
            transform="matrix(1,0,0,1,218.30326354330708,-75.89429118110236)"
        />
    </g>
    <g>
        <polyline
            points="-20.598504448818886,9.070862244094485 20.598504448818886,9.070862244094485 20.598504448818886,-9.070862244094485"
            fill="none"
            stroke-dasharray="0.4pt 0pt"
            stroke-opacity="1"
            stroke-width="0.5333333333333333"
            stroke="#000"
            transform="matrix(1,0,0,1,247.37015799212597,-84.66141342519684)"
        />
    </g>
    <g style="" class="">
        <use
            xlink:href="#path_american-voltage-source"
            fill="#fff"
            stroke="#000"
            style="color: #000;"
            transform="matrix(6.123233995736766e-17,1,-1,6.123233995736766e-17,110.89362897637794,-120.34244787401573)"
            class="draggable"
        />
        <line
            x1="94.48818897637794"
            y1="-132.28346456692913"
            x2="94.48818897637794"
            y2="-119.81108787401573"
            fill="none"
            stroke-width="0.5"
            stroke="#000"
        />
        <line
            x1="94.48818897637794"
            y1="-75.59055118110234"
            x2="94.48818897637794"
            y2="-88.06292787401574"
            fill="none"
            stroke-width="0.5"
            stroke="#000"
        />
    </g>
    <g>
        <polyline
            points="-33.07086614173228,-4.7244094488189035 33.070866141732296,-4.7244094488189035 33.070866141732296,4.724409448818889"
            fill="none"
            stroke-dasharray="0.4pt 0pt"
            stroke-opacity="1"
            stroke-width="0.5333333333333333"
            stroke="#000"
            transform="matrix(1,0,0,1,127.55905511811022,-127.55905511811022)"
        />
    </g>
    <g>
        <polyline
            points="-47.24409448818896,18.897637795275585 -47.24409448818896,-18.897637795275585 47.24409448818898,-18.897637795275585"
            fill="none"
            stroke-dasharray="0.4pt 0pt"
            stroke-opacity="1"
            stroke-width="0.5333333333333333"
            stroke="#000"
            transform="matrix(1,0,0,1,141.7322834645669,-151.1811023622047)"
        />
    </g>
    <g>
        <polyline
            points="-66.14173228346455,0 66.14173228346459,0"
            fill="none"
            stroke-dasharray="0.4pt 0pt"
            stroke-opacity="1"
            stroke-width="0.5333333333333333"
            stroke="#000"
            transform="matrix(1,0,0,1,160.6299212598425,-75.59055118110236)"
        />
    </g>
</svg>
